# xmcd
#
# Track frame offsets:
#	150
#	17856
#	30362
#	47073
#	60282
#	73848
#	84070
#	98470
#	120884
#	133901
#	148514
#	162935
#	176407
#	190153
#
# Disc length: 2744 seconds
#
# Revision: 1
# Processed by: cddbd v1.5.2PL0 Copyright (c) Steve Scherf et al.
# Submitted via: audiograbber 1.83.01
#
DISCID=a80ab60e
DTITLE=The TCB-Band and Dennis Jale - Nashville
DYEAR=2010
DGENRE=
TTITLE0=Stranger In My Own Home Town
TTITLE1=Snap Your Fingers
TTITLE2=Miss Your Smile
TTITLE3=Wearin' That Loved On Look
TTITLE4=Everybody's Talking
TTITLE5=Travelin' Band
TTITLE6=Dance Of Life
TTITLE7=Reconsider Baby
TTITLE8=Most Beautiful Girl
TTITLE9=Suzie Q
TTITLE10=Tears For What
TTITLE11=Fever
TTITLE12=Stranger In My Own Home Town
TTITLE13=Merry Christmas, Baby
EXTD=
EXTT0=
EXTT1=
EXTT2=
EXTT3=
EXTT4=
EXTT5=
EXTT6=
EXTT7=
EXTT8=
EXTT9=
EXTT10=
EXTT11=
EXTT12=
EXTT13=
PLAYORDER=
